<svg width="59" height="86" viewBox="0 0 59 86" fill="none" xmlns="http://www.w3.org/2000/svg">
<path d="M21.648 14.0654L25.5725 14.9792L22.5182 30.4725L16.0218 29.1918L18.4068 17.3677C18.7535 15.6728 19.6255 15.0214 21.648 14.0654Z" fill="url(#paint0_linear)"/>
<path d="M15.1657 15.7777C13.9498 15.7777 12.9642 14.792 12.9642 13.5762L12.9642 12.3531C12.9642 11.1372 13.9498 10.1516 15.1657 10.1516L43.1741 10.1516C44.39 10.1516 45.3757 11.1372 45.3757 12.3531V13.5762C45.3757 14.792 44.39 15.7777 43.1741 15.7777L15.1657 15.7777Z" fill="url(#paint1_linear)"/>
<path d="M32.5334 15.0654L36.5084 14.1877C38.058 14.7835 39.1991 15.0654 39.6272 17.1842L42.3192 30.972L35.8158 32.2167L32.5334 15.0654Z" fill="url(#paint2_linear)"/>
<path d="M30.2095 11.3746C31.1973 11.3746 32.1754 11.5692 33.088 11.9472C34.0006 12.3252 34.8299 12.8793 35.5283 13.5777C36.2268 14.2762 36.7809 15.1054 37.1589 16.018C37.5369 16.9306 37.7314 17.9088 37.7314 18.8965H33.2961C33.2961 18.4912 33.2163 18.0898 33.0611 17.7154C32.906 17.3409 32.6787 17.0006 32.3921 16.714C32.1054 16.4274 31.7652 16.2 31.3907 16.0449C31.0162 15.8898 30.6149 15.7777 30.2095 15.7777V11.3746Z" fill="url(#paint3_linear)"/>
<path d="M20.3638 18.8965C20.3638 17.9088 20.5583 16.9306 20.9363 16.018C21.3144 15.1054 21.8684 14.2762 22.5669 13.5777C23.2654 12.8793 24.0946 12.3252 25.0072 11.9472C25.9198 11.5692 26.8979 11.3746 27.8857 11.3746V15.7777C27.4804 15.7777 27.079 15.8898 26.7045 16.0449C26.33 16.2 25.9898 16.4274 25.7032 16.714C25.4165 17.0006 25.1892 17.3409 25.0341 17.7154C24.879 18.0898 24.7991 18.4912 24.7991 18.8965H20.3638Z" fill="url(#paint4_linear)"/>
<path d="M15.9611 31.4941L19.5918 28.4329L14.8133 52.6725L8.31684 51.3918L11.3745 36.0806C11.9431 32.9973 13.4881 32.5646 15.9611 31.4941Z" fill="url(#paint5_linear)"/>
<path d="M10.5184 33.7568C9.30249 33.7568 8.31683 32.7711 8.31683 31.5553L8.31683 29.3537C8.31683 28.1379 9.30249 27.1522 10.5184 27.1522L47.9445 27.1522C49.1604 27.1522 50.146 28.1379 50.146 29.3537V31.5553C50.146 32.7711 49.1604 33.7568 47.9445 33.7568L10.5184 33.7568Z" fill="url(#paint6_linear)"/>
<path d="M39.016 28.3968L42.563 31.6776C44.8105 32.372 46.5991 33.3287 47.0883 35.9583L50.1634 51.4179L43.6599 52.6625L39.016 28.3968Z" fill="url(#paint7_linear)"/>
<path d="M37.5483 29.3209C38.5361 29.3209 39.5143 29.5155 40.4269 29.8935C41.3395 30.2715 42.1687 30.8256 42.8671 31.524C43.5656 32.2225 44.1197 33.0517 44.4977 33.9643C44.8757 34.8769 45.0703 35.855 45.0703 36.8428H40.6349C40.6349 36.4375 40.5551 36.0361 40.4 35.6617C40.2448 35.2872 40.0175 34.9469 39.7309 34.6603C39.4443 34.3737 39.104 34.1463 38.7295 33.9912C38.355 33.8361 37.9537 33.7563 37.5483 33.7563V29.3209Z" fill="url(#paint8_linear)"/>
<path d="M13.4974 36.8428C13.4974 35.855 13.692 34.8769 14.07 33.9643C14.448 33.0517 15.0021 32.2225 15.7005 31.524C16.399 30.8255 17.2282 30.2715 18.1408 29.8934C19.0534 29.5154 20.0315 29.3209 21.0193 29.3209V33.7562C20.614 33.7562 20.2126 33.8361 19.8382 33.9912C19.4637 34.1463 19.1234 34.3736 18.8368 34.6603C18.5502 34.9469 18.3228 35.2871 18.1677 35.6616C18.0126 36.0361 17.9328 36.4375 17.9328 36.8428H13.4974Z" fill="url(#paint9_linear)"/>
<path d="M26.3584 1.90987e-05L29.17 8.88908e-06L29.2923 10.7631L24.2166 10.7631L26.3584 1.90987e-05Z" fill="white"/>
<path d="M22.015 5.01462C20.7992 5.01462 19.8135 4.02896 19.8135 2.81308L19.8135 2.20155C19.8135 0.985671 20.7992 9.25498e-06 22.015 9.20184e-06L36.325 8.57633e-06C37.5409 8.52318e-06 38.5266 0.98567 38.5266 2.20154V2.81308C38.5266 4.02896 37.5409 5.01462 36.325 5.01462L22.015 5.01462Z" fill="white"/>
<path d="M29.17 8.88908e-06L31.9431 1.23797e-05L34.0012 10.7631L29.2923 10.7631L29.17 8.88908e-06Z" fill="white"/>
<path d="M29.1773 39.8723L55.7791 51.4303C58.246 52.426 58.6127 53.0825 58.103 54.3657L55.6568 59.9307L44.5269 85.9822H29.1772L29.1773 56.9342L37.433 59.4415V82.4353L47.768 57.9738C48.2572 56.873 48.1349 56.9342 46.8507 56.3226L29.1773 48.6784V39.8723Z" fill="white"/>
<path d="M29.1779 48.6784V39.8723L1.84213 51.7973C-0.134156 52.6213 -0.250733 53.1095 0.252128 53.9988L2.82059 60.053L7.89635 71.978L20.9833 67.8807V82.3742L17.0083 73.2622L9.60865 75.7084L13.8894 85.9822H29.1779V65.2511V56.9342L14.0117 61.643C12.7886 62.0711 12.2994 61.8265 12.0548 61.2761L10.6482 58.035C10.2813 57.1176 10.6033 56.7499 11.9936 56.1392L29.1779 48.6784Z" fill="#FFE3E3"/>
<defs>
<linearGradient id="paint0_linear" x1="29.1699" y1="10.1516" x2="29.1699" y2="32.2167" gradientUnits="userSpaceOnUse">
<stop stop-color="white"/>
<stop offset="1" stop-color="#FFDCDC"/>
</linearGradient>
<linearGradient id="paint1_linear" x1="29.1699" y1="10.1516" x2="29.1699" y2="32.2167" gradientUnits="userSpaceOnUse">
<stop stop-color="white"/>
<stop offset="1" stop-color="#FFDCDC"/>
</linearGradient>
<linearGradient id="paint2_linear" x1="29.1699" y1="10.1516" x2="29.1699" y2="32.2167" gradientUnits="userSpaceOnUse">
<stop stop-color="white"/>
<stop offset="1" stop-color="#FFDCDC"/>
</linearGradient>
<linearGradient id="paint3_linear" x1="29.1699" y1="10.1516" x2="29.1699" y2="32.2167" gradientUnits="userSpaceOnUse">
<stop stop-color="white"/>
<stop offset="1" stop-color="#FFDCDC"/>
</linearGradient>
<linearGradient id="paint4_linear" x1="29.1699" y1="10.1516" x2="29.1699" y2="32.2167" gradientUnits="userSpaceOnUse">
<stop stop-color="white"/>
<stop offset="1" stop-color="#FFDCDC"/>
</linearGradient>
<linearGradient id="paint5_linear" x1="29.2401" y1="27.1522" x2="29.2401" y2="52.6725" gradientUnits="userSpaceOnUse">
<stop stop-color="white"/>
<stop offset="1" stop-color="#FFDCDC"/>
</linearGradient>
<linearGradient id="paint6_linear" x1="29.2401" y1="27.1522" x2="29.2401" y2="52.6725" gradientUnits="userSpaceOnUse">
<stop stop-color="white"/>
<stop offset="1" stop-color="#FFDCDC"/>
</linearGradient>
<linearGradient id="paint7_linear" x1="29.2401" y1="27.1522" x2="29.2401" y2="52.6725" gradientUnits="userSpaceOnUse">
<stop stop-color="white"/>
<stop offset="1" stop-color="#FFDCDC"/>
</linearGradient>
<linearGradient id="paint8_linear" x1="29.2401" y1="27.1522" x2="29.2401" y2="52.6725" gradientUnits="userSpaceOnUse">
<stop stop-color="white"/>
<stop offset="1" stop-color="#FFDCDC"/>
</linearGradient>
<linearGradient id="paint9_linear" x1="29.2401" y1="27.1522" x2="29.2401" y2="52.6725" gradientUnits="userSpaceOnUse">
<stop stop-color="white"/>
<stop offset="1" stop-color="#FFDCDC"/>
</linearGradient>
</defs>
</svg>
